<svg width="165" height="87" viewBox="0 0 165 87" fill="none" xmlns="http://www.w3.org/2000/svg">
<path d="M72.3799 47.4883C68.7992 47.4883 65.8857 46.3164 63.6396 43.9727C61.3936 41.6126 60.2705 38.4632 60.2705 34.5244V33.6943C60.2705 31.0739 60.7669 28.7383 61.7598 26.6875C62.7689 24.6204 64.1686 23.0091 65.959 21.8535C67.7656 20.6816 69.7188 20.0957 71.8184 20.0957C75.2526 20.0957 77.9219 21.2269 79.8262 23.4893C81.7305 25.7516 82.6826 28.9906 82.6826 33.2061V35.0859H64.7871C64.8522 37.6901 65.609 39.7979 67.0576 41.4092C68.5225 43.0042 70.3779 43.8018 72.624 43.8018C74.2191 43.8018 75.57 43.4762 76.6768 42.8252C77.7835 42.1742 78.752 41.3115 79.582 40.2373L82.3408 42.3857C80.1273 45.7874 76.807 47.4883 72.3799 47.4883ZM71.8184 23.8066C69.9954 23.8066 68.4655 24.474 67.2285 25.8086C65.9915 27.127 65.2266 28.9824 64.9336 31.375H78.166V31.0332C78.0358 28.7383 77.4173 26.9642 76.3105 25.7109C75.2038 24.4414 73.7064 23.8066 71.8184 23.8066Z" fill="#FFFAFA"/>
<path d="M63.6396 43.9727L63.2775 44.3174L63.2787 44.3186L63.6396 43.9727ZM61.7598 26.6875L61.3104 26.4681L61.3097 26.4696L61.7598 26.6875ZM65.959 21.8535L66.2301 22.2736L66.2311 22.273L65.959 21.8535ZM79.8262 23.4893L79.4436 23.8112L79.8262 23.4893ZM82.6826 35.0859V35.5859H83.1826V35.0859H82.6826ZM64.7871 35.0859V34.5859H64.2745L64.2873 35.0984L64.7871 35.0859ZM67.0576 41.4092L66.6858 41.7435L66.6894 41.7474L67.0576 41.4092ZM76.6768 42.8252L76.4232 42.3942L76.6768 42.8252ZM79.582 40.2373L79.8892 39.8428L79.4933 39.5344L79.1864 39.9316L79.582 40.2373ZM82.3408 42.3857L82.7599 42.6584L83.0104 42.2735L82.648 41.9913L82.3408 42.3857ZM67.2285 25.8086L67.5932 26.1507L67.5952 26.1485L67.2285 25.8086ZM64.9336 31.375L64.4373 31.3142L64.3686 31.875H64.9336V31.375ZM78.166 31.375V31.875H78.666V31.375H78.166ZM78.166 31.0332H78.666V31.019L78.6652 31.0049L78.166 31.0332ZM76.3105 25.7109L75.9337 26.0395L75.9358 26.0419L76.3105 25.7109ZM72.3799 46.9883C68.9199 46.9883 66.1422 45.8614 64.0006 43.6267L63.2787 44.3186C65.6293 46.7714 68.6784 47.9883 72.3799 47.9883V46.9883ZM64.0018 43.628C61.862 41.3796 60.7705 38.3633 60.7705 34.5244H59.7705C59.7705 38.5631 60.9251 41.8456 63.2775 44.3174L64.0018 43.628ZM60.7705 34.5244V33.6943H59.7705V34.5244H60.7705ZM60.7705 33.6943C60.7705 31.138 61.2544 28.8787 62.2098 26.9054L61.3097 26.4696C60.2794 28.5978 59.7705 31.0098 59.7705 33.6943H60.7705ZM62.2091 26.9069C63.1815 24.9149 64.5224 23.3759 66.2301 22.2736L65.6878 21.4334C63.8148 22.6424 62.3563 24.3259 61.3104 26.4681L62.2091 26.9069ZM66.2311 22.273C67.9589 21.1522 69.8179 20.5957 71.8184 20.5957V19.5957C69.6196 19.5957 67.5724 20.211 65.6869 21.434L66.2311 22.273ZM71.8184 20.5957C75.1316 20.5957 77.6502 21.6805 79.4436 23.8112L80.2087 23.1673C78.1936 20.7732 75.3736 19.5957 71.8184 19.5957V20.5957ZM79.4436 23.8112C81.2454 25.9518 82.1826 29.0591 82.1826 33.2061H83.1826C83.1826 28.922 82.2155 25.5514 80.2087 23.1673L79.4436 23.8112ZM82.1826 33.2061V35.0859H83.1826V33.2061H82.1826ZM82.6826 34.5859H64.7871V35.5859H82.6826V34.5859ZM64.2873 35.0984C64.3547 37.7965 65.1422 40.0265 66.6858 41.7435L67.4295 41.0749C66.0759 39.5692 65.3497 37.5837 65.287 35.0734L64.2873 35.0984ZM66.6894 41.7474C68.2528 43.4498 70.2438 44.3018 72.624 44.3018V43.3018C70.512 43.3018 68.7921 42.5587 67.4259 41.071L66.6894 41.7474ZM72.624 44.3018C74.2868 44.3018 75.7301 43.9621 76.9303 43.2562L76.4232 42.3942C75.4099 42.9903 74.1513 43.3018 72.624 43.3018V44.3018ZM76.9303 43.2562C78.0951 42.571 79.1109 41.6647 79.9777 40.543L79.1864 39.9316C78.393 40.9583 77.472 41.7773 76.4232 42.3942L76.9303 43.2562ZM79.2748 40.6318L82.0336 42.7802L82.648 41.9913L79.8892 39.8428L79.2748 40.6318ZM81.9217 42.113C79.81 45.3583 76.6561 46.9883 72.3799 46.9883V47.9883C76.9579 47.9883 80.4446 46.2166 82.7599 42.6584L81.9217 42.113ZM71.8184 23.3066C69.8565 23.3066 68.1936 24.0318 66.8618 25.4687L67.5952 26.1485C68.7374 24.9161 70.1344 24.3066 71.8184 24.3066V23.3066ZM66.8639 25.4665C65.5335 26.8844 64.7389 28.8511 64.4373 31.3142L65.4299 31.4358C65.7142 29.1138 66.4496 27.3695 67.5931 26.1507L66.8639 25.4665ZM64.9336 31.875H78.166V30.875H64.9336V31.875ZM78.666 31.375V31.0332H77.666V31.375H78.666ZM78.6652 31.0049C78.531 28.6394 77.8898 26.7439 76.6853 25.38L75.9358 26.0419C76.9448 27.1845 77.5406 28.8371 77.6668 31.0615L78.6652 31.0049ZM76.6874 25.3824C75.4736 23.99 73.8313 23.3066 71.8184 23.3066V24.3066C73.5814 24.3066 74.934 24.8928 75.9337 26.0395L76.6874 25.3824Z" fill="white"/>
<path d="M101.626 58.6826C98.1821 57.7027 95.797 55.8103 94.4711 53.0054C93.1509 50.1854 93.1919 46.935 94.5942 43.2542L94.8897 42.4785C95.8226 40.0298 97.1315 37.983 98.8166 36.3383C100.523 34.6828 102.443 33.5601 104.576 32.9702C106.731 32.3695 108.818 32.3564 110.838 32.931C114.141 33.8708 116.306 35.6583 117.332 38.2936C118.358 40.9289 118.121 44.2162 116.62 48.1555L115.951 49.9122L98.7385 45.015C97.874 47.4663 97.8516 49.6431 98.6712 51.5453C99.5123 53.4367 101.013 54.6897 103.173 55.3044C104.708 55.7409 106.123 55.8064 107.419 55.5009C108.715 55.1953 109.954 54.6542 111.135 53.8776L113.023 56.6402C109.683 59.2133 105.884 59.8941 101.626 58.6826ZM109.517 36.3988C107.763 35.8999 106.054 36.1048 104.389 37.0135C102.73 37.907 101.334 39.4316 100.2 41.5872L112.928 45.2084L113.049 44.889C113.741 42.7088 113.778 40.8817 113.16 39.4076C112.547 37.9184 111.333 36.9155 109.517 36.3988Z" fill="#FFFAFA"/>
<path d="M94.4711 53.0054L94 53.2284L94.0007 53.2299L94.4711 53.0054ZM98.8166 36.3383L98.4625 36.0104L98.4613 36.0115L98.8166 36.3383ZM104.576 32.9702L104.688 33.4369L104.689 33.4366L104.576 32.9702ZM117.332 38.2936L116.849 38.4898L117.332 38.2936ZM115.951 49.9122L115.773 50.3794L116.254 50.5163L116.432 50.049L115.951 49.9122ZM98.7385 45.015L98.9165 44.5477L98.4234 44.4074L98.2532 44.8898L98.7385 45.015ZM98.6712 51.5453L98.1945 51.7559L98.1966 51.7605L98.6712 51.5453ZM107.419 55.5009L107.329 55.0288L107.419 55.5009ZM111.135 53.8776L111.571 53.593L111.3 53.1965L110.863 53.4836L111.135 53.8776ZM113.023 56.6402L113.329 57.0097L113.707 56.7185L113.459 56.3556L113.023 56.6402ZM104.389 37.0135L104.618 37.433L104.621 37.4315L104.389 37.0135ZM100.2 41.5872L99.7447 41.3946L99.4791 41.8999L100.022 42.0545L100.2 41.5872ZM112.928 45.2084L112.75 45.6756L113.231 45.8125L113.409 45.3452L112.928 45.2084ZM113.049 44.889L113.53 45.0258L113.535 45.0126L113.54 44.9991L113.049 44.889ZM113.16 39.4076L112.68 39.6115L112.681 39.6144L113.16 39.4076ZM101.804 58.2153C98.4762 57.2685 96.2057 55.4553 94.9415 52.7809L94.0007 53.2299C95.3884 56.1653 97.8879 58.1369 101.448 59.1498L101.804 58.2153ZM94.9422 52.7824C93.6845 50.0958 93.7084 46.9784 95.0751 43.391L94.1133 43.1174C92.6755 46.8915 92.6174 50.2749 94 53.2284L94.9422 52.7824ZM95.0751 43.391L95.3706 42.6153L94.4088 42.3417L94.1133 43.1174L95.0751 43.391ZM95.3706 42.6153C96.2807 40.2265 97.5504 38.2477 99.1719 36.665L98.4613 36.0115C96.7126 37.7184 95.3645 39.833 94.4088 42.3417L95.3706 42.6153ZM99.1706 36.6662C100.815 35.0709 102.653 33.9996 104.688 33.4369L104.465 32.5034C102.233 33.1206 100.231 34.2947 98.4625 36.0104L99.1706 36.6662ZM104.689 33.4366C106.75 32.8621 108.736 32.8508 110.66 33.3982L111.016 32.4637C108.901 31.862 106.713 31.8768 104.464 32.5037L104.689 33.4366ZM110.66 33.3982C113.847 34.3049 115.883 36.0079 116.849 38.4898L117.814 38.0974C116.729 35.3087 114.435 33.4367 111.016 32.4637L110.66 33.3982ZM116.849 38.4898C117.82 40.9832 117.616 44.1434 116.139 48.0186L117.101 48.2923C118.626 44.289 118.896 40.8745 117.814 38.0974L116.849 38.4898ZM116.139 48.0186L115.47 49.7754L116.432 50.049L117.101 48.2923L116.139 48.0186ZM116.129 49.445L98.9165 44.5477L98.5605 45.4822L115.773 50.3794L116.129 49.445ZM98.2532 44.8898C97.3576 47.4296 97.3212 49.729 98.1945 51.7559L99.1478 51.3346C98.3819 49.5572 98.3904 47.503 99.2237 45.1401L98.2532 44.8898ZM98.1966 51.7605C99.0943 53.7793 100.706 55.1203 102.995 55.7716L103.351 54.8371C101.32 54.2592 99.9303 53.0941 99.1458 51.33L98.1966 51.7605ZM102.995 55.7716C104.595 56.2267 106.104 56.3043 107.509 55.973L107.329 55.0288C106.142 55.3085 104.82 55.2551 103.351 54.8371L102.995 55.7716ZM107.509 55.973C108.874 55.6514 110.173 55.0826 111.406 54.2715L110.863 53.4836C109.734 54.2259 108.557 54.7393 107.329 55.0288L107.509 55.973ZM110.699 54.1621L112.587 56.9248L113.459 56.3556L111.571 53.593L110.699 54.1621ZM112.717 56.2707C109.531 58.7254 105.917 59.3855 101.804 58.2153L101.448 59.1498C105.851 60.4026 109.836 59.7011 113.329 57.0097L112.717 56.2707ZM109.695 35.9315C107.808 35.3947 105.95 35.6172 104.158 36.5956L104.621 37.4315C106.158 36.5925 107.719 36.4052 109.339 36.866L109.695 35.9315ZM104.161 36.594C102.376 37.555 100.912 39.1754 99.7447 41.3946L100.656 41.7798C101.756 39.6878 103.085 38.259 104.618 37.433L104.161 36.594ZM100.022 42.0545L112.75 45.6756L113.106 44.7411L100.378 41.12L100.022 42.0545ZM113.409 45.3452L113.53 45.0258L112.569 44.7521L112.447 45.0716L113.409 45.3452ZM113.54 44.9991C114.253 42.7519 114.311 40.8051 113.638 39.2009L112.681 39.6144C113.245 40.9582 113.23 42.6656 112.559 44.7788L113.54 44.9991ZM113.639 39.2037C112.967 37.5704 111.631 36.4824 109.695 35.9315L109.339 36.866C111.035 37.3485 112.127 38.2664 112.68 39.6115L113.639 39.2037Z" fill="white"/>
<path d="M90.5459 24.5579V30.9543H95.4776V34.4456H90.5459V50.8274C90.5459 51.8853 90.7657 52.6829 91.2051 53.22C91.6446 53.7408 92.3933 54.0012 93.4512 54.0012C93.972 54.0012 94.6882 53.9036 95.5996 53.7083V57.3704C94.4115 57.6959 93.2559 57.8586 92.1328 57.8586C90.1146 57.8586 88.5928 57.2483 87.5674 56.0276C86.542 54.8069 86.0293 53.0735 86.0293 50.8274V34.4456H81.2198V30.9543H86.0293V24.5579H90.5459Z" fill="#FFFAFA"/>
<path d="M90.5459 24.5579H91.0459V24.0579H90.5459V24.5579ZM90.5459 30.9543H90.0459V31.4543H90.5459V30.9543ZM95.4776 30.9543H95.9776V30.4543H95.4776V30.9543ZM95.4776 34.4456V34.9456H95.9776V34.4456H95.4776ZM90.5459 34.4456V33.9456H90.0459V34.4456H90.5459ZM91.2051 53.22L90.8181 53.5366L90.823 53.5424L91.2051 53.22ZM95.5996 53.7083H96.0996V53.0898L95.4949 53.2193L95.5996 53.7083ZM95.5996 57.3704L95.7318 57.8526L96.0996 57.7518V57.3704H95.5996ZM86.0293 34.4456H86.5293V33.9456H86.0293V34.4456ZM81.2198 34.4456H80.7198V34.9456H81.2198V34.4456ZM81.2198 30.9543V30.4543H80.7198V30.9543H81.2198ZM86.0293 30.9543V31.4543H86.5293V30.9543H86.0293ZM86.0293 24.5579V24.0579H85.5293V24.5579H86.0293ZM90.0459 24.5579V30.9543H91.0459V24.5579H90.0459ZM90.5459 31.4543H95.4776V30.4543H90.5459V31.4543ZM94.9776 30.9543V34.4456H95.9776V30.9543H94.9776ZM95.4776 33.9456H90.5459V34.9456H95.4776V33.9456ZM90.0459 34.4456V50.8274H91.0459V34.4456H90.0459ZM90.0459 50.8274C90.0459 51.943 90.2759 52.8738 90.8181 53.5366L91.5921 52.9034C91.2554 52.4919 91.0459 51.8277 91.0459 50.8274H90.0459ZM90.823 53.5424C91.3997 54.226 92.3274 54.5012 93.4512 54.5012V53.5012C92.4591 53.5012 91.8894 53.2556 91.5873 52.8975L90.823 53.5424ZM93.4512 54.5012C94.0245 54.5012 94.7809 54.395 95.7044 54.1972L95.4949 53.2193C94.5954 53.4121 93.9196 53.5012 93.4512 53.5012V54.5012ZM95.0996 53.7083V57.3704H96.0996V53.7083H95.0996ZM95.4675 56.8881C94.3183 57.203 93.2072 57.3586 92.1328 57.3586V58.3586C93.3046 58.3586 94.5047 58.1888 95.7318 57.8526L95.4675 56.8881ZM92.1328 57.3586C90.2198 57.3586 88.8563 56.7846 87.9503 55.706L87.1846 56.3492C88.3293 57.7119 90.0094 58.3586 92.1328 58.3586V57.3586ZM87.9503 55.706C87.0263 54.6061 86.5293 53.0033 86.5293 50.8274H85.5293C85.5293 53.1436 86.0577 55.0077 87.1846 56.3492L87.9503 55.706ZM86.5293 50.8274V34.4456H85.5293V50.8274H86.5293ZM86.0293 33.9456H81.2198V34.9456H86.0293V33.9456ZM81.7198 34.4456V30.9543H80.7198V34.4456H81.7198ZM81.2198 31.4543H86.0293V30.4543H81.2198V31.4543ZM86.5293 30.9543V24.5579H85.5293V30.9543H86.5293ZM86.0293 25.0579H90.5459V24.0579H86.0293V25.0579Z" fill="white"/>
<path d="M117.17 42.5433C116.476 40.0502 116.346 37.7052 116.78 35.5085C117.229 33.3085 118.188 31.4837 119.656 30.0341C121.14 28.5812 123.021 27.618 125.3 27.1443C128.821 26.4124 132 27.0207 134.834 28.9693C137.685 30.9146 139.665 33.8787 140.773 37.8614L140.858 38.1672C141.548 40.6446 141.681 42.9722 141.259 45.15C140.849 47.3087 139.896 49.124 138.4 50.5959C136.921 52.0645 135.018 53.0405 132.691 53.5241C129.186 54.2528 126.007 53.6444 123.157 51.6991C120.322 49.7505 118.354 46.8005 117.255 42.8491L117.17 42.5433ZM121.76 42.1367C122.545 44.9591 123.837 47.0875 125.635 48.5217C127.45 49.9526 129.472 50.4362 131.703 49.9725C133.95 49.5055 135.495 48.2722 136.337 46.2725C137.176 44.2571 137.161 41.6892 136.292 38.5688C135.516 35.7778 134.21 33.6606 132.375 32.2173C130.552 30.755 128.525 30.2557 126.294 30.7194C124.111 31.1732 122.588 32.3937 121.725 34.3811C120.862 36.3684 120.874 38.9536 121.76 42.1367Z" fill="#FFFAFA"/>
<path d="M116.78 35.5085L116.281 35.3856L116.281 35.3886L116.78 35.5085ZM119.656 30.0341L119.285 29.6773L119.284 29.6787L119.656 30.0341ZM134.834 28.9693L134.558 29.3654L134.559 29.3664L134.834 28.9693ZM141.259 45.15L140.76 45.0317L140.76 45.0333L141.259 45.15ZM138.4 50.5959L138.029 50.24L138.027 50.2414L138.4 50.5959ZM123.157 51.6991L122.88 52.0952L122.881 52.0962L123.157 51.6991ZM125.635 48.5217L125.327 48.8945L125.329 48.8963L125.635 48.5217ZM136.337 46.2725L136.809 46.4814L136.81 46.4794L136.337 46.2725ZM132.375 32.2173L132.066 32.5891L132.07 32.5923L132.375 32.2173ZM117.659 42.4416C116.983 40.0124 116.861 37.7439 117.278 35.6284L116.281 35.3886C115.831 37.6666 115.968 40.0879 116.68 42.6451L117.659 42.4416ZM117.278 35.6314C117.711 33.5122 118.63 31.7704 120.028 30.3895L119.284 29.6787C117.746 31.197 116.748 33.1047 116.282 35.3856L117.278 35.6314ZM120.027 30.3908C121.441 29.0062 123.237 28.0825 125.434 27.626L125.165 26.6626C122.804 27.1534 120.838 28.1562 119.285 29.6773L120.027 30.3908ZM125.434 27.626C128.828 26.9205 131.855 27.5075 134.558 29.3654L135.111 28.5732C132.144 26.5339 128.815 25.9042 125.165 26.6626L125.434 27.626ZM134.559 29.3664C137.282 31.2242 139.2 34.0697 140.284 37.9632L141.263 37.7597C140.13 33.6876 138.089 30.605 135.11 28.5722L134.559 29.3664ZM140.284 37.9632L140.369 38.2689L141.348 38.0654L141.263 37.7597L140.284 37.9632ZM140.369 38.2689C141.041 40.6831 141.167 42.9348 140.76 45.0317L141.758 45.2683C142.196 43.0097 142.055 40.6062 141.348 38.0654L140.369 38.2689ZM140.76 45.0333C140.366 47.1049 139.455 48.8359 138.029 50.24L138.772 50.9518C140.336 49.4121 141.331 47.5126 141.759 45.2667L140.76 45.0333ZM138.027 50.2414C136.619 51.6393 134.802 52.5758 132.557 53.0424L132.826 54.0058C135.234 53.5052 137.223 52.4897 138.773 50.9505L138.027 50.2414ZM132.557 53.0424C129.18 53.7444 126.152 53.1581 123.432 51.302L122.881 52.0962C125.863 54.1307 129.192 54.7611 132.826 54.0058L132.557 53.0424ZM123.433 51.303C120.725 49.4416 118.819 46.6092 117.744 42.7473L116.765 42.9508C117.89 46.9918 119.918 50.0594 122.88 52.0952L123.433 51.303ZM117.744 42.7473L117.659 42.4416L116.68 42.6451L116.765 42.9508L117.744 42.7473ZM121.27 42.2384C122.076 45.1332 123.416 47.3706 125.327 48.8945L125.944 48.1489C124.258 46.8044 123.015 44.785 122.249 42.0349L121.27 42.2384ZM125.329 48.8963C127.272 50.4283 129.457 50.9488 131.837 50.4542L131.569 49.4908C129.487 49.9236 127.627 49.4769 125.941 48.1471L125.329 48.8963ZM131.837 50.4542C134.233 49.9562 135.906 48.6247 136.809 46.4814L135.866 46.0635C135.084 47.9196 133.667 49.0549 131.569 49.4908L131.837 50.4542ZM136.81 46.4794C137.702 44.3337 137.667 41.6476 136.782 38.4671L135.803 38.6706C136.654 41.7307 136.649 44.1805 135.865 46.0655L136.81 46.4794ZM136.782 38.4671C135.984 35.5996 134.627 33.3738 132.681 31.8423L132.07 32.5923C133.792 33.9474 135.047 35.9559 135.803 38.6706L136.782 38.4671ZM132.685 31.8455C130.735 30.2814 128.544 29.7424 126.16 30.2377L126.429 31.2011C128.507 30.7691 130.37 31.2286 132.066 32.5891L132.685 31.8455ZM126.16 30.2377C123.825 30.7232 122.178 32.0434 121.256 34.1676L122.195 34.5945C122.998 32.744 124.398 31.6231 126.429 31.2011L126.16 30.2377ZM121.256 34.1676C120.334 36.2898 120.368 38.9975 121.27 42.2384L122.249 42.0349C121.379 38.9097 121.391 36.447 122.195 34.5945L121.256 34.1676Z" fill="white"/>
<path d="M18.2852 29.0402L17.9583 32.8873C20.9834 30.1742 24.7381 29.0652 29.2226 29.5602C34.1374 30.1027 37.2243 32.3449 38.4832 36.2868C41.7088 32.8399 45.745 31.3839 50.5919 31.9189C54.646 32.3664 57.4934 33.8147 59.134 36.2638C60.7973 38.7154 61.3301 42.119 60.7324 46.4745L57.1794 70.5151L48.9239 69.6039L52.4419 45.8C52.7851 43.4782 52.527 41.72 51.6677 40.5255C50.8084 39.331 49.201 38.6038 46.8456 38.3438C44.9657 38.1363 43.3506 38.4735 42.0003 39.3554C40.676 40.2172 39.6561 41.4334 38.9406 43.0039L35.2666 68.0964L27.011 67.1852L30.5691 43.1108C31.0922 38.7928 29.2021 36.3964 24.8988 35.9214C21.592 35.5564 19.0496 36.6389 17.2716 39.1688L13.3538 65.6777L5.09823 64.7665L10.5053 28.1815L18.2852 29.0402Z" fill="#0870D0"/>
<path d="M18.2852 29.0402L20.2874 29.1369C20.3766 28.0865 19.6277 27.1776 18.5776 27.0617L18.2852 29.0402ZM17.9583 32.8873L15.9561 32.7906C15.8873 33.6002 16.3197 34.3528 17.0493 34.6935C17.779 35.0342 18.6602 34.895 19.2773 34.3415L17.9583 32.8873ZM38.4832 36.2868L36.5654 36.9481C36.7775 37.6122 37.3322 38.1034 38.0241 38.2397C38.7161 38.3761 39.4423 38.1374 39.934 37.6119L38.4832 36.2868ZM59.134 36.2638L57.4477 37.405L57.454 37.4142L59.134 36.2638ZM60.7324 46.4745L62.7204 46.6939C62.7214 46.6871 62.7224 46.6803 62.7233 46.6734L60.7324 46.4745ZM57.1794 70.5151L56.887 72.4936C57.9849 72.6148 59.0058 71.8272 59.1673 70.7345L57.1794 70.5151ZM48.9239 69.6039L46.9359 69.3845C46.7744 70.4772 47.5336 71.4612 48.6315 71.5824L48.9239 69.6039ZM42.0003 39.3554L43.0612 41.0075L43.064 41.0056L42.0003 39.3554ZM38.9406 43.0039L37.114 42.2392C37.0343 42.4142 36.9798 42.5987 36.9522 42.7871L38.9406 43.0039ZM35.2666 68.0964L34.9742 70.0749C35.5019 70.1332 36.0388 69.9802 36.4666 69.6498C36.8944 69.3193 37.178 68.8385 37.2549 68.3132L35.2666 68.0964ZM27.011 67.1852L25.0231 66.9658C24.8616 68.0585 25.6207 69.0425 26.7186 69.1637L27.011 67.1852ZM30.5691 43.1108L32.557 43.3302C32.5596 43.3129 32.5619 43.2957 32.564 43.2783L30.5691 43.1108ZM17.2716 39.1688L15.6359 38.071C15.4508 38.3345 15.3301 38.6355 15.2837 38.9494L17.2716 39.1688ZM13.3538 65.6777L13.0613 67.6563C14.1592 67.7774 15.1802 66.9899 15.3417 65.8972L13.3538 65.6777ZM5.09823 64.7665L3.1103 64.5471C2.94881 65.6398 3.70792 66.6238 4.80582 66.745L5.09823 64.7665ZM10.5053 28.1815L10.7977 26.203C9.69977 26.0818 8.67883 26.8694 8.51733 27.9621L10.5053 28.1815ZM16.283 28.9436L15.9561 32.7906L19.9605 32.984L20.2874 29.1369L16.283 28.9436ZM19.2773 34.3415C21.7993 32.0797 24.9415 31.0984 28.9302 31.5387L29.515 27.5817C24.5348 27.032 20.1674 28.2688 16.6392 31.4331L19.2773 34.3415ZM28.9302 31.5387C31.1396 31.7826 32.7923 32.3924 33.9987 33.2687C35.1871 34.1319 36.0485 35.3294 36.5654 36.9481L40.4009 35.6255C39.659 33.3022 38.3474 31.4077 36.449 30.0287C34.5685 28.6628 32.2204 27.8803 29.515 27.5817L28.9302 31.5387ZM39.934 37.6119C42.6833 34.674 46.0576 33.4292 50.2994 33.8974L50.8843 29.9404C45.4323 29.3386 40.7342 31.0057 37.0323 34.9616L39.934 37.6119ZM50.2994 33.8974C53.9964 34.3055 56.2227 35.5762 57.4478 37.405L60.8203 35.1226C58.7641 32.0531 55.2956 30.4273 50.8843 29.9404L50.2994 33.8974ZM57.454 37.4142C58.7524 39.328 59.3031 42.184 58.7416 46.2756L62.7233 46.6734C63.3572 42.0539 62.8423 38.1028 60.8141 35.1133L57.454 37.4142ZM58.7445 46.2551L55.1915 70.2957L59.1673 70.7345L62.7204 46.6939L58.7445 46.2551ZM57.4718 68.5366L49.2163 67.6254L48.6315 71.5824L56.887 72.4936L57.4718 68.5366ZM50.9118 69.8233L54.4299 46.0194L50.454 45.5805L46.9359 69.3845L50.9118 69.8233ZM54.4299 46.0194C54.8069 43.4684 54.5955 41.1083 53.318 39.3324L50.0175 41.7186C50.4585 42.3317 50.7633 43.488 50.454 45.5805L54.4299 46.0194ZM53.318 39.3324C51.9984 37.4981 49.7312 36.6515 47.138 36.3653L46.5531 40.3223C48.6709 40.5561 49.6185 41.164 50.0175 41.7186L53.318 39.3324ZM47.138 36.3653C44.8824 36.1163 42.7661 36.5103 40.9366 37.7052L43.064 41.0056C43.9351 40.4367 45.049 40.1563 46.5531 40.3223L47.138 36.3653ZM40.9394 37.7033C39.2465 38.805 37.9766 40.3459 37.114 42.2392L40.7671 43.7685C41.3355 42.5209 42.1054 41.6295 43.0612 41.0075L40.9394 37.7033ZM36.9522 42.7871L33.2783 67.8797L37.2549 68.3132L40.9289 43.2206L36.9522 42.7871ZM35.559 66.1179L27.3035 65.2067L26.7186 69.1637L34.9742 70.0749L35.559 66.1179ZM28.999 67.4046L32.557 43.3302L28.5812 42.8914L25.0231 66.9658L28.999 67.4046ZM32.564 43.2783C32.8627 40.8123 32.5125 38.5505 31.1437 36.8151C29.7734 35.0776 27.6561 34.2149 25.1912 33.9429L24.6064 37.8999C26.4447 38.1028 27.4242 38.6759 27.9439 39.3349C28.4653 39.9959 28.7985 41.0913 28.5742 42.9432L32.564 43.2783ZM25.1912 33.9429C23.2672 33.7305 21.4384 33.9265 19.7747 34.6349C18.1002 35.3478 16.7224 36.5252 15.6359 38.071L18.9073 40.2666C19.5989 39.2825 20.3813 38.6536 21.2492 38.2841C22.1279 37.91 23.2236 37.7473 24.6064 37.8999L25.1912 33.9429ZM15.2837 38.9494L11.3658 65.4583L15.3417 65.8972L19.2595 39.3882L15.2837 38.9494ZM13.6462 63.6992L5.39064 62.788L4.80582 66.745L13.0613 67.6563L13.6462 63.6992ZM7.08616 64.9859L12.4932 28.4009L8.51733 27.9621L3.1103 64.5471L7.08616 64.9859ZM10.2128 30.16L17.9927 31.0187L18.5776 27.0617L10.7977 26.203L10.2128 30.16Z" fill="white"/>
<path d="M75.5852 62.8948L76.7645 46.0556L84.2265 44.7914L80.5069 76.3268L80.237 77.7818C79.4438 81.4106 77.2579 83.5281 73.6793 84.1343C72.6683 84.3056 71.6071 84.3288 70.4956 84.2039L69.3128 78.9897L70.3773 78.8341C71.6932 78.6112 72.6271 78.2469 73.179 77.7414C73.7469 77.2331 74.111 76.4874 74.2712 75.5042L74.6089 73.2465L59.6259 48.9592L67.112 47.6909L75.5852 62.8948Z" fill="#0870D0"/>
<path d="M75.5852 62.8948L73.8224 63.7731C74.2595 64.5574 75.1569 64.9934 76.029 64.845C76.901 64.6967 77.5406 63.9992 77.6014 63.1302L75.5852 62.8948ZM76.7645 46.0556L76.3221 44.1052C75.4494 44.253 74.8092 44.9507 74.7483 45.8202L76.7645 46.0556ZM84.2265 44.7914L86.2343 45.117C86.3089 44.485 86.0641 43.8411 85.5774 43.3891C85.0908 42.9371 84.4225 42.7328 83.7841 42.841L84.2265 44.7914ZM80.5069 76.3268L82.496 76.7758C82.5035 76.7349 82.5098 76.6938 82.5147 76.6523L80.5069 76.3268ZM80.237 77.7818L82.2143 78.2895C82.2185 78.27 82.2225 78.2505 82.2261 78.2308L80.237 77.7818ZM70.4956 84.2039L68.5237 84.538C68.7203 85.4045 69.4711 86.0691 70.367 86.1698L70.4956 84.2039ZM69.3128 78.9897L68.9152 77.0322C68.3819 77.1102 67.9143 77.3972 67.618 77.8285C67.3217 78.2598 67.2218 78.7988 67.3409 79.3238L69.3128 78.9897ZM70.3773 78.8341L70.7748 80.7916C70.7899 80.7895 70.8048 80.7871 70.8198 80.7846L70.3773 78.8341ZM73.179 77.7414L71.7746 76.25C71.7693 76.2548 71.7639 76.2596 71.7587 76.2644L73.179 77.7414ZM74.2712 75.5042L76.2674 75.9126C76.2687 75.9045 76.27 75.8963 76.2712 75.8882L74.2712 75.5042ZM74.6089 73.2465L76.6089 73.6305C76.6775 73.1722 76.5768 72.6967 76.3246 72.288L74.6089 73.2465ZM59.6259 48.9592L59.1835 47.0088C58.5446 47.117 58.0148 47.5246 57.7619 48.1025C57.509 48.6804 57.5642 49.3569 57.9102 49.9178L59.6259 48.9592ZM67.112 47.6909L68.8748 46.8127C68.438 46.0288 67.5413 45.5928 66.6696 45.7405L67.112 47.6909ZM77.6014 63.1302L78.7807 46.291L74.7483 45.8202L73.5689 62.6594L77.6014 63.1302ZM77.207 48.0061L84.669 46.7419L83.7841 42.841L76.3221 44.1052L77.207 48.0061ZM82.2188 44.4659L78.4991 76.0013L82.5147 76.6523L86.2343 45.117L82.2188 44.4659ZM78.5178 75.8778L78.248 77.3328L82.2261 78.2308L82.496 76.7758L78.5178 75.8778ZM78.2598 77.2741C77.9245 78.8083 77.3253 79.8939 76.5448 80.65C75.769 81.4015 74.703 81.9355 73.2369 82.1839L74.1218 86.0848C76.2342 85.7269 78.0504 84.899 79.4606 83.533C80.866 82.1715 81.7564 80.3841 82.2143 78.2895L78.2598 77.2741ZM73.2369 82.1839C72.4266 82.3212 71.5585 82.3431 70.6242 82.2381L70.367 86.1698C71.6557 86.3146 72.9101 86.2901 74.1218 86.0848L73.2369 82.1839ZM72.4675 83.8699L71.2847 78.6557L67.3409 79.3238L68.5237 84.538L72.4675 83.8699ZM69.7103 80.9473L70.7748 80.7916L69.9798 76.8766L68.9152 77.0322L69.7103 80.9473ZM70.8198 80.7846C72.2659 80.5396 73.6449 80.0926 74.5993 79.2183L71.7587 76.2644C71.6093 76.4013 71.1205 76.6828 69.9349 76.8837L70.8198 80.7846ZM74.5833 79.2327C75.5499 78.3676 76.0591 77.19 76.2674 75.9126L72.2751 75.0958C72.1628 75.7847 71.9439 76.0985 71.7746 76.25L74.5833 79.2327ZM76.2712 75.8882L76.6089 73.6305L72.609 72.8626L72.2713 75.1202L76.2712 75.8882ZM76.3246 72.288L61.3416 48.0006L57.9102 49.9178L72.8933 74.2051L76.3246 72.288ZM60.0684 50.9096L67.5545 49.6414L66.6696 45.7405L59.1835 47.0088L60.0684 50.9096ZM65.3492 48.5692L73.8224 63.7731L77.348 62.0165L68.8748 46.8127L65.3492 48.5692Z" fill="white"/>
</svg>
