<svg width="195" height="115" viewBox="0 0 195 115" fill="none" xmlns="http://www.w3.org/2000/svg">
<g filter="url(#filter0_d)">
<path d="M77.107 69.1043C77.107 90.0335 60.7414 107 40.5535 107C20.3656 107 4 90.0335 4 69.1043C4 48.175 20.3656 31.2085 40.5535 31.2085C60.7414 31.2085 77.107 48.175 77.107 69.1043Z" fill="#F4EDED"/>
<path d="M191 78.9124C191 94.4247 178.597 107 163.296 107C147.996 107 135.593 94.4247 135.593 78.9124C135.593 63.4002 147.996 50.825 163.296 50.825C178.597 50.825 191 63.4002 191 78.9124Z" fill="#F4EDED"/>
<path d="M163.296 53.4997C163.296 74.1827 146.931 90.9496 126.743 90.9496C106.555 90.9496 90.1892 74.1827 90.1892 53.4997C90.1892 32.8167 106.555 16.0498 126.743 16.0498C146.931 16.0498 163.296 32.8167 163.296 53.4997Z" fill="#F4EDED"/>
<path d="M127.897 53.4999C127.897 83.047 110.498 107 89.0348 107C67.5719 107 50.1727 83.047 50.1727 53.4999C50.1727 23.9527 67.5719 0 89.0348 0C110.498 0 127.897 23.9527 127.897 53.4999Z" fill="#F4EDED"/>
<path d="M40.9384 82.9246H158.679V107H40.9384V82.9246Z" fill="#F4EDED"/>
</g>
<g filter="url(#filter1_d)">
<path d="M46.6564 73.4311C46.4298 73.0783 46.2068 72.4305 45.9873 71.4877C44.6525 73.2109 42.9423 74.1848 40.8567 74.4095C38.9925 74.6104 37.4039 74.2512 36.0908 73.3318C34.7881 72.3996 34.0496 71.1237 33.8751 69.5042C33.6629 67.5351 34.2442 65.9285 35.6188 64.6842C37.0038 63.427 39.0537 62.6522 41.7685 62.3597L44.9143 62.0208L44.7543 60.5352C44.6325 59.4051 44.1979 58.5443 43.4506 57.953C42.702 57.35 41.6694 57.1195 40.3528 57.2613C39.1994 57.3856 38.2637 57.7811 37.5458 58.4478C36.8279 59.1144 36.5136 59.8614 36.6027 60.6886L33.352 61.0389C33.2503 60.0951 33.4844 59.1505 34.0544 58.2051C34.6348 57.2468 35.4683 56.4498 36.5549 55.8141C37.6531 55.1772 38.8897 54.7847 40.2645 54.6365C42.4433 54.4018 44.2092 54.7655 45.5623 55.7277C46.9141 56.6782 47.7162 58.1063 47.9687 60.0121L48.9064 68.7157C49.0934 70.4517 49.4636 71.8085 50.0168 72.7862L50.0469 73.0658L46.6564 73.4311ZM41.0254 71.5449C42.0391 71.4357 42.9721 71.07 43.8244 70.4477C44.6767 69.8255 45.2616 69.073 45.579 68.1902L45.161 64.3103L42.6268 64.5833C38.6654 65.0101 36.8096 66.3828 37.0594 68.7014C37.1686 69.7151 37.5918 70.471 38.3291 70.9691C39.0664 71.4672 39.9652 71.6591 41.0254 71.5449Z" fill="black"/>
<path d="M108.747 72.211C108.64 71.8056 108.628 71.1206 108.71 70.156C106.909 71.383 104.981 71.7814 102.928 71.3514C101.093 70.9669 99.6929 70.1348 98.7278 68.855C97.7765 67.5662 97.4679 66.1246 97.8019 64.5303C98.2079 62.592 99.2568 61.2432 100.948 60.4841C102.654 59.7159 104.843 59.6117 107.515 60.1715L110.612 60.8203L110.918 59.3579C111.151 58.2453 111.004 57.2924 110.476 56.4993C109.95 55.6947 109.039 55.1566 107.743 54.8851C106.607 54.6473 105.595 54.7346 104.706 55.1471C103.818 55.5596 103.288 56.173 103.118 56.9874L99.9176 56.317C100.112 55.3879 100.626 54.5618 101.46 53.8385C102.308 53.1062 103.347 52.6054 104.577 52.3362C105.818 52.0694 107.115 52.0777 108.469 52.3613C110.614 52.8106 112.181 53.7017 113.171 55.0345C114.163 56.3559 114.485 57.9619 114.137 59.8526L112.342 68.4205C111.984 70.1295 111.918 71.5343 112.142 72.635L112.084 72.9102L108.747 72.211ZM103.973 68.6787C104.971 68.8878 105.971 68.8279 106.974 68.4992C107.977 68.1705 108.765 67.6352 109.34 66.8935L110.14 63.0741L107.645 62.5515C103.746 61.7345 101.557 62.4673 101.078 64.7498C100.869 65.7477 101.039 66.5973 101.586 67.2987C102.134 68 102.929 68.4601 103.973 68.6787Z" fill="black"/>
<path d="M50.6461 54.969L51.3064 57.2691C52.2929 55.1523 53.9257 53.8206 56.2048 53.2738C60.1134 52.3359 62.6138 54.0679 63.7061 58.4697L66.6385 70.6912L63.4763 71.4499L60.5398 59.2114C60.2085 57.8808 59.6644 56.969 58.9073 56.4757C58.1616 55.9798 57.1563 55.8835 55.8915 56.187C54.8659 56.4331 54.0313 56.9226 53.3876 57.6555C52.744 58.3884 52.3123 59.2512 52.0925 60.2439L55.2546 73.4226L52.0923 74.1813L47.6548 55.6867L50.6461 54.969Z" fill="black"/>
<path d="M69.9941 75H66.7422V55.9805H69.9941V75ZM66.4785 50.9355C66.4785 50.4082 66.6367 49.9629 66.9531 49.5996C67.2812 49.2363 67.7617 49.0547 68.3945 49.0547C69.0273 49.0547 69.5078 49.2363 69.8359 49.5996C70.1641 49.9629 70.3281 50.4082 70.3281 50.9355C70.3281 51.4629 70.1641 51.9023 69.8359 52.2539C69.5078 52.6055 69.0273 52.7812 68.3945 52.7812C67.7617 52.7812 67.2812 52.6055 66.9531 52.2539C66.6367 51.9023 66.4785 51.4629 66.4785 50.9355Z" fill="black"/>
<path d="M125.994 78H122.742V58.9805H125.994V78ZM122.479 53.9355C122.479 53.4082 122.637 52.9629 122.953 52.5996C123.281 52.2363 123.762 52.0547 124.395 52.0547C125.027 52.0547 125.508 52.2363 125.836 52.5996C126.164 52.9629 126.328 53.4082 126.328 53.9355C126.328 54.4629 126.164 54.9023 125.836 55.2539C125.508 55.6055 125.027 55.7812 124.395 55.7812C123.762 55.7812 123.281 55.6055 122.953 55.2539C122.637 54.9023 122.479 54.4629 122.479 53.9355Z" fill="black"/>
<path d="M75.5195 49.9805L75.6074 52.0898C77.002 50.4492 78.8828 49.6289 81.25 49.6289C83.9102 49.6289 85.7207 50.6484 86.6816 52.6875C87.3145 51.7734 88.1348 51.0352 89.1426 50.4727C90.1621 49.9102 91.3633 49.6289 92.7461 49.6289C96.918 49.6289 99.0391 51.8379 99.1094 56.2559V69H95.8574V56.4492C95.8574 55.0898 95.5469 54.0762 94.9258 53.4082C94.3047 52.7285 93.2617 52.3887 91.7969 52.3887C90.5898 52.3887 89.5879 52.752 88.791 53.4785C87.9941 54.1934 87.5312 55.1602 87.4023 56.3789V69H84.1328V56.5371C84.1328 53.7715 82.7793 52.3887 80.0723 52.3887C77.9395 52.3887 76.4805 53.2969 75.6953 55.1133V69H72.4434V49.9805H75.5195Z" fill="black"/>
<path d="M118.873 44.375V48.9805H122.424V51.4941H118.873V63.2891C118.873 64.0508 119.031 64.625 119.348 65.0117C119.664 65.3867 120.203 65.5742 120.965 65.5742C121.34 65.5742 121.855 65.5039 122.512 65.3633V68C121.656 68.2344 120.824 68.3516 120.016 68.3516C118.562 68.3516 117.467 67.9121 116.729 67.0332C115.99 66.1543 115.621 64.9062 115.621 63.2891V51.4941H112.158V48.9805H115.621V44.375H118.873Z" fill="black"/>
<path d="M127.6 55.3145C127.6 53.4512 127.963 51.7754 128.689 50.2871C129.428 48.7988 130.447 47.6504 131.748 46.8418C133.061 46.0332 134.555 45.6289 136.23 45.6289C138.82 45.6289 140.912 46.5254 142.506 48.3184C144.111 50.1113 144.914 52.4961 144.914 55.4727V55.7012C144.914 57.5527 144.557 59.2168 143.842 60.6934C143.139 62.1582 142.125 63.3008 140.801 64.1211C139.488 64.9414 137.977 65.3516 136.266 65.3516C133.688 65.3516 131.596 64.4551 129.99 62.6621C128.396 60.8691 127.6 58.4961 127.6 55.543V55.3145ZM130.869 55.7012C130.869 57.8105 131.355 59.5039 132.328 60.7812C133.312 62.0586 134.625 62.6973 136.266 62.6973C137.918 62.6973 139.23 62.0527 140.203 60.7637C141.176 59.4629 141.662 57.6465 141.662 55.3145C141.662 53.2285 141.164 51.541 140.168 50.252C139.184 48.9512 137.871 48.3008 136.23 48.3008C134.625 48.3008 133.33 48.9395 132.346 50.2168C131.361 51.4941 130.869 53.3223 130.869 55.7012Z" fill="black"/>
<path d="M138.962 53.3539L139.495 55.6866C140.596 53.6269 142.299 52.3863 144.604 51.9647C148.558 51.2417 150.961 53.1076 151.811 57.5625L154.072 69.9258L150.873 70.5108L148.609 58.1301C148.351 56.7835 147.857 55.8433 147.128 55.3095C146.411 54.7735 145.412 54.6225 144.133 54.8565C143.095 55.0462 142.235 55.4894 141.552 56.1861C140.87 56.8827 140.391 57.7207 140.118 58.7L142.556 72.0316L139.357 72.6166L135.936 53.9073L138.962 53.3539Z" fill="black"/>
</g>
<defs>
<filter id="filter0_d" x="0" y="0" width="195" height="115" filterUnits="userSpaceOnUse" color-interpolation-filters="sRGB">
<feFlood flood-opacity="0" result="BackgroundImageFix"/>
<feColorMatrix in="SourceAlpha" type="matrix" values="0 0 0 0 0 0 0 0 0 0 0 0 0 0 0 0 0 0 127 0"/>
<feOffset dy="4"/>
<feGaussianBlur stdDeviation="2"/>
<feColorMatrix type="matrix" values="0 0 0 0 0 0 0 0 0 0 0 0 0 0 0 0 0 0 0.25 0"/>
<feBlend mode="normal" in2="BackgroundImageFix" result="effect1_dropShadow"/>
<feBlend mode="normal" in="SourceGraphic" in2="effect1_dropShadow" result="shape"/>
</filter>
<filter id="filter1_d" x="29.3289" y="44.375" width="128.743" height="41.625" filterUnits="userSpaceOnUse" color-interpolation-filters="sRGB">
<feFlood flood-opacity="0" result="BackgroundImageFix"/>
<feColorMatrix in="SourceAlpha" type="matrix" values="0 0 0 0 0 0 0 0 0 0 0 0 0 0 0 0 0 0 127 0"/>
<feOffset dy="4"/>
<feGaussianBlur stdDeviation="2"/>
<feColorMatrix type="matrix" values="0 0 0 0 0 0 0 0 0 0 0 0 0 0 0 0 0 0 0.25 0"/>
<feBlend mode="normal" in2="BackgroundImageFix" result="effect1_dropShadow"/>
<feBlend mode="normal" in="SourceGraphic" in2="effect1_dropShadow" result="shape"/>
</filter>
</defs>
</svg>
