<svg width="41" height="33" viewBox="0 0 41 33" fill="none" xmlns="http://www.w3.org/2000/svg">
<rect x="0.125488" width="40.4721" height="3.9686" fill="#20425E"/>
<rect x="0.125488" y="28.4204" width="40.4721" height="3.9686" fill="#20425E"/>
<rect width="27.2558" height="4.34711" transform="matrix(0.00290108 -0.999996 0.999996 0.00267508 0 31.2241)" fill="#20425E"/>
<rect width="27.2558" height="4.34711" transform="matrix(0.00272663 -0.999996 0.999996 0.00284623 36.2119 31.2241)" fill="#20425E"/>
<rect x="13.2817" y="20.4834" width="6.51564" height="5.63285" fill="#20425E"/>
<rect x="5.76367" y="20.4834" width="6.51564" height="5.63285" fill="#20425E"/>
<rect x="20.7998" y="20.4834" width="6.64094" height="5.63285" fill="#20425E"/>
<rect x="28.4434" y="20.4834" width="6.51564" height="5.63285" fill="#20425E"/>
<rect x="13.2817" y="13.8262" width="6.51564" height="5.63285" fill="#20425E"/>
<rect x="5.76367" y="13.8262" width="6.51564" height="5.63285" fill="#20425E"/>
<rect x="20.7998" y="13.8262" width="6.64094" height="5.63285" fill="#20425E"/>
<rect x="28.4434" y="13.8262" width="6.51564" height="5.63285" fill="#20425E"/>
<rect x="13.2817" y="7.16895" width="6.51564" height="5.63285" fill="#20425E"/>
<rect x="20.7998" y="7.16895" width="6.64094" height="5.63285" fill="#20425E"/>
<rect x="28.4434" y="7.16895" width="6.51564" height="5.63285" fill="#20425E"/>
</svg>
