<svg width="164" height="100" viewBox="0 0 164 100" fill="none" xmlns="http://www.w3.org/2000/svg">
<g filter="url(#filter0_d)">
<path d="M64.9877 59.4167C64.9877 77.412 51.3351 92.0001 34.4938 92.0001C17.6525 92.0001 4 77.412 4 59.4167C4 41.4214 17.6525 26.8334 34.4938 26.8334C51.3351 26.8334 64.9877 41.4214 64.9877 59.4167Z" fill="#F4EDED"/>
<path d="M160 67.85C160 81.1877 149.653 92 136.889 92C124.125 92 113.778 81.1877 113.778 67.85C113.778 54.5123 124.125 43.6999 136.889 43.6999C149.653 43.6999 160 54.5123 160 67.85Z" fill="#F4EDED"/>
<path d="M136.889 45.9997C136.889 63.7833 123.236 78.1997 106.395 78.1997C89.5537 78.1997 75.9012 63.7833 75.9012 45.9997C75.9012 28.2161 89.5537 13.7996 106.395 13.7996C123.236 13.7996 136.889 28.2161 136.889 45.9997Z" fill="#F4EDED"/>
<path d="M107.358 45.9998C107.358 71.4049 92.8431 91.9999 74.9382 91.9999C57.0332 91.9999 42.5184 71.4049 42.5184 45.9998C42.5184 20.5947 57.0332 -0.000244141 74.9382 -0.000244141C92.8431 -0.000244141 107.358 20.5947 107.358 45.9998Z" fill="#F4EDED"/>
<path d="M34.8149 71.2997H133.037V91.9997H34.8149V71.2997Z" fill="#F4EDED"/>
</g>
<g filter="url(#filter1_d)">
<path d="M63.8063 62.7506C61.5148 63.932 59.2637 64.1432 57.053 63.3844C54.837 62.6151 53.0792 60.9702 51.7796 58.4495L51.5058 57.9183C50.6412 56.2413 50.1883 54.5828 50.1471 52.9429C50.1109 51.2871 50.475 49.7941 51.2395 48.4639C52.009 47.1178 53.0656 46.0985 54.4093 45.4057C56.6071 44.2727 58.6885 44.1159 60.6536 44.9354C62.6187 45.755 64.2967 47.5136 65.6875 50.2114L66.3077 51.4144L54.8553 57.3187C55.7562 58.9638 56.936 60.0629 58.3946 60.6162C59.8583 61.1536 61.3089 61.0519 62.7463 60.3108C63.767 59.7845 64.5241 59.1305 65.0176 58.3487C65.5111 57.5669 65.8463 56.6954 66.0231 55.734L68.4974 56.1987C68.2032 59.106 66.6395 61.2899 63.8063 62.7506ZM55.6337 47.7806C54.4671 48.382 53.7081 49.3139 53.3569 50.5761C53.0002 51.8279 53.1228 53.2677 53.7247 54.8955L62.1929 50.5297L62.0802 50.311C61.2397 48.8853 60.2585 47.954 59.1368 47.5171C58.0096 47.0699 56.8419 47.1577 55.6337 47.7806Z" fill="black"/>
<path d="M69.2577 52.8016C69.74 49.8763 70.7995 47.6637 72.4364 46.1639C74.0751 44.6525 76.0103 44.0808 78.2419 44.4487C80.5313 44.8261 82.1843 45.93 83.2009 47.7603L83.7001 45.7048L86.6313 46.188L83.6119 64.5033C83.2116 66.9314 82.1735 68.7259 80.4975 69.8867C78.833 71.0495 76.7868 71.4307 74.3586 71.0304C73.0058 70.8074 71.7295 70.3 70.5298 69.5084C69.3301 68.7168 68.472 67.7618 67.9557 66.6433L69.9381 64.9926C71.0338 66.9192 72.5761 68.0464 74.5649 68.3743C76.1258 68.6316 77.4123 68.3924 78.4244 67.6566C79.4481 66.9227 80.0914 65.7579 80.3544 64.1622L80.6204 62.5492C79.0929 63.8177 77.2192 64.2689 74.9991 63.9029C72.8022 63.5408 71.1674 62.3627 70.0946 60.3686C69.0335 58.3765 68.7545 55.8542 69.2577 52.8016ZM72.4237 53.6977C72.0748 55.8137 72.2339 57.5502 72.901 58.9072C73.5699 60.2527 74.6849 61.0541 76.2459 61.3114C78.2693 61.645 79.9067 60.9707 81.1579 59.2886L82.5704 50.7206C81.883 48.7664 80.5565 47.6272 78.5908 47.3032C77.0299 47.0459 75.7099 47.4518 74.631 48.521C73.5521 49.5902 72.8163 51.3158 72.4237 53.6977Z" fill="black"/>
<path d="M39.9265 45.9701L44.1 45.4018L46.9462 66.305L54.7225 65.2461L54.8322 67.9198L43.1322 69.5129L39.9265 45.9701Z" fill="black"/>
<path d="M99.1787 60.1309C98.9822 59.7606 98.8137 59.0965 98.6732 58.1387C97.2 59.7452 95.4149 60.5739 93.3179 60.6248C91.4434 60.6703 89.8901 60.1805 88.6578 59.1554C87.437 58.1183 86.8068 56.7855 86.7673 55.1571C86.7193 53.1772 87.4318 51.6243 88.9049 50.4984C90.3895 49.3605 92.4966 48.7584 95.2263 48.6922L98.3894 48.6154L98.3531 47.1217C98.3256 45.9853 97.9639 45.0915 97.2682 44.4402C96.5723 43.7772 95.5624 43.4618 94.2385 43.4939C93.0787 43.5221 92.1135 43.8385 91.3427 44.4433C90.572 45.0482 90.1968 45.7664 90.217 46.5982L86.9484 46.6775C86.9254 45.7286 87.2371 44.8067 87.8835 43.9119C88.5414 43.005 89.4381 42.2799 90.5737 41.7366C91.721 41.193 92.9859 40.9044 94.3683 40.8708C96.5591 40.8177 98.2887 41.3267 99.5573 42.3978C100.826 43.4572 101.506 44.9469 101.6 46.8671L101.812 55.6184C101.855 57.364 102.111 58.7469 102.581 59.767L102.588 60.0482L99.1787 60.1309ZM93.7237 57.784C94.7429 57.7593 95.7031 57.4723 96.6041 56.9229C97.5051 56.3735 98.1503 55.6721 98.5399 54.8187L98.4452 50.9175L95.8972 50.9793C91.914 51.076 89.9506 52.29 90.0072 54.6213C90.0319 55.6405 90.391 56.4289 91.0844 56.9865C91.7779 57.5441 92.6576 57.8099 93.7237 57.784Z" fill="black"/>
<path d="M107.293 45.8863L111.386 46.8818L106.4 67.3801L114.026 69.235L113.151 71.764L101.678 68.9732L107.293 45.8863Z" fill="black"/>
<rect x="109.177" y="38.3207" width="4.16121" height="17.255" transform="rotate(13.764 109.177 38.3207)" fill="#0A0909"/>
</g>
<defs>
<filter id="filter0_d" x="0" y="-0.000244141" width="164" height="100" filterUnits="userSpaceOnUse" color-interpolation-filters="sRGB">
<feFlood flood-opacity="0" result="BackgroundImageFix"/>
<feColorMatrix in="SourceAlpha" type="matrix" values="0 0 0 0 0 0 0 0 0 0 0 0 0 0 0 0 0 0 127 0"/>
<feOffset dy="4"/>
<feGaussianBlur stdDeviation="2"/>
<feColorMatrix type="matrix" values="0 0 0 0 0 0 0 0 0 0 0 0 0 0 0 0 0 0 0.25 0"/>
<feBlend mode="normal" in2="BackgroundImageFix" result="effect1_dropShadow"/>
<feBlend mode="normal" in="SourceGraphic" in2="effect1_dropShadow" result="shape"/>
</filter>
<filter id="filter1_d" x="35.9265" y="38.3207" width="82.0992" height="41.4432" filterUnits="userSpaceOnUse" color-interpolation-filters="sRGB">
<feFlood flood-opacity="0" result="BackgroundImageFix"/>
<feColorMatrix in="SourceAlpha" type="matrix" values="0 0 0 0 0 0 0 0 0 0 0 0 0 0 0 0 0 0 127 0"/>
<feOffset dy="4"/>
<feGaussianBlur stdDeviation="2"/>
<feColorMatrix type="matrix" values="0 0 0 0 0 0 0 0 0 0 0 0 0 0 0 0 0 0 0.25 0"/>
<feBlend mode="normal" in2="BackgroundImageFix" result="effect1_dropShadow"/>
<feBlend mode="normal" in="SourceGraphic" in2="effect1_dropShadow" result="shape"/>
</filter>
</defs>
</svg>
